<svg version="1.0" xmlns="http://www.w3.org/2000/svg"
 viewBox="0 0 600 600"
 preserveAspectRatio="xMidYMid meet">
<g transform="translate(0.000000,600.000000) scale(0.100000,-0.100000)" stroke="none" fill='#FFF'>
<path d="M1803 5409 l-1189 -591 -289 -1301 c-159 -716 -291 -1315 -293 -1331
-3 -18 -1 -26 6 -23 5 4 9 1 8 -6 0 -7 366 -486 814 -1065 l814 -1052 1321 0
1321 0 814 1052 c448 579 814 1058 814 1065 -1 7 3 10 8 6 7 -3 9 5 6 23 -2
16 -134 615 -293 1331 l-289 1301 -1185 588 c-652 323 -1189 589 -1192 591 -3
1 -541 -263 -1196 -588z m2746 -757 c7 -13 -3 -64 -39 -190 -27 -95 -54 -181
-60 -192 -13 -24 -27 -27 -150 -35 -106 -7 -140 -13 -140 -25 0 -5 21 -12 48
-15 139 -18 183 -28 191 -43 11 -19 -25 -126 -111 -327 -87 -203 -189 -384
-307 -542 -76 -103 -243 -277 -280 -292 -24 -11 -41 -9 -112 13 -114 34 -260
62 -402 77 -159 17 -173 3 -40 -41 126 -42 321 -118 351 -138 40 -26 25 -53
-57 -99 -218 -124 -468 -188 -855 -221 l-90 -7 -33 -55 c-21 -36 -29 -58 -23
-64 6 -6 64 -10 137 -8 170 2 173 0 173 -111 0 -45 -4 -88 -9 -96 -5 -8 -26
-17 -47 -20 l-39 -6 0 -80 0 -80 135 -5 c182 -7 221 -28 240 -131 13 -67 60
-459 60 -495 0 -16 -13 -39 -34 -60 l-34 -34 -751 0 c-825 0 -795 -2 -821 60
-8 20 -11 52 -7 93 17 175 49 426 57 459 8 28 45 72 83 100 1 0 67 4 147 7
l145 6 3 74 c3 79 -3 91 -45 91 -42 0 -53 25 -53 115 0 63 4 88 16 99 13 14
50 16 253 16 214 0 239 2 253 18 9 9 48 69 88 132 155 247 419 595 635 835
126 141 487 508 563 573 69 59 59 67 -14 11 -94 -72 -178 -151 -409 -383 -272
-273 -442 -470 -647 -746 -67 -91 -85 -107 -100 -92 -24 24 66 320 157 517
112 242 308 524 511 734 398 413 829 617 1306 620 132 1 148 -1 157 -17z"/>
<path d="M2593 1944 c-9 -24 56 -527 70 -536 14 -9 109 -10 131 -2 13 5 15 16
11 53 -32 282 -59 478 -67 489 -16 19 -137 16 -145 -4z"/>
</g>
</svg>
